<svg xmlns="http://www.w3.org/2000/svg" viewBox="0 0 24 24"><defs><style>.cls-1,.cls-3{fill:none;stroke:#10b9ff;stroke-linejoin:round;stroke-width:2px;}.cls-1{stroke-linecap:round;}.cls-2{fill:#10b9ff;}</style></defs><title>Support Desk</title><g id="Support_Desk" data-name="Support Desk"><path class="cls-1" d="M15,1a7.28,7.28,0,0,1,3,6.06c0,3.87-2.69,7-6,7s-6-3.13-6-7"/><path class="cls-1" d="M19,7.06c.28,0,.5.39.5.87s-.22.87-.5.87"/><path class="cls-1" d="M3,23V17s0-2,4-2"/><path class="cls-1" d="M21,23V17s0-2-4-2"/><path class="cls-1" d="M5.5,7.06c-.28,0-.5.39-.5.87s.22.87.5.87"/><path class="cls-1" d="M15,1s0,4.06-4,4.06-5,2-5,2"/><path class="cls-2" d="M12.91,11c0,.28-.32.5-.72.5s-.71-.22-.71-.5.32-.5.71-.5S12.91,10.71,12.91,11Z"/><path class="cls-1" d="M12.91,11c0,.28-.32.5-.72.5s-.71-.22-.71-.5.32-.5.71-.5S12.91,10.71,12.91,11Z"/><path class="cls-1" d="M13,11.06h3a2,2,0,0,0,2-2v-2"/><polyline class="cls-3" points="9 17 14 17 10 22 15 22"/></g></svg>